<svg xmlns="http://www.w3.org/2000/svg" width="1920" height="1080"><path d="M977,492L917,363L888,456Z" fill="#59bdc1" stroke="#59bdc1" stroke-width="1.51"/><path d="M977,492L983,342L917,363Z" fill="#5cbec1" stroke="#5cbec1" stroke-width="1.51"/><path d="M917,363L819,470L888,456Z" fill="#60c0c0" stroke="#60c0c0" stroke-width="1.51"/><path d="M888,456L843,624L977,492Z" fill="#4db9c3" stroke="#4db9c3" stroke-width="1.51"/><path d="M977,492L1115,437L983,342Z" fill="#55b9c1" stroke="#55b9c1" stroke-width="1.51"/><path d="M977,492L1062,587L1115,437Z" fill="#45b2c3" stroke="#45b2c3" stroke-width="1.51"/><path d="M843,624L1062,587L977,492Z" fill="#3fb3c4" stroke="#3fb3c4" stroke-width="1.51"/><path d="M917,363L762,338L819,470Z" fill="#6ac4bf" stroke="#6ac4bf" stroke-width="1.51"/><path d="M860,221L762,338L917,363Z" fill="#78c8be" stroke="#78c8be" stroke-width="1.51"/><path d="M1115,437L1150,336L983,342Z" fill="#5cb8bf" stroke="#5cb8bf" stroke-width="1.51"/><path d="M983,342L860,221L917,363Z" fill="#71c5bf" stroke="#71c5bf" stroke-width="1.51"/><path d="M1008,164L860,221L983,342Z" fill="#7dc9be" stroke="#7dc9be" stroke-width="1.51"/><path d="M819,470L843,624L888,456Z" fill="#54bcc2" stroke="#54bcc2" stroke-width="1.51"/><path d="M723,576L843,624L819,470Z" fill="#56bbc2" stroke="#56bbc2" stroke-width="1.51"/><path d="M1105,184L1008,164L983,342Z" fill="#7dc5bd" stroke="#7dc5bd" stroke-width="1.51"/><path d="M1062,587L1292,598L1115,437Z" fill="#38a9c3" stroke="#38a9c3" stroke-width="1.51"/><path d="M1302,334L1240,221L1150,336Z" fill="#67b3bd" stroke="#67b3bd" stroke-width="1.51"/><path d="M979,735L1101,651L1062,587Z" fill="#34a5c3" stroke="#34a5c3" stroke-width="1.51"/><path d="M661,515L723,576L819,470Z" fill="#60c0c0" stroke="#60c0c0" stroke-width="1.51"/><path d="M1150,336L1105,184L983,342Z" fill="#6fbebe" stroke="#6fbebe" stroke-width="1.51"/><path d="M1008,164L938,129L860,221Z" fill="#8dcfbd" stroke="#8dcfbd" stroke-width="1.51"/><path d="M998,127L938,129L1008,164Z" fill="#90cebd" stroke="#90cebd" stroke-width="1.51"/><path d="M860,221L759,200L762,338Z" fill="#88cebc" stroke="#88cebc" stroke-width="1.51"/><path d="M762,338L661,515L819,470Z" fill="#6bc4bf" stroke="#6bc4bf" stroke-width="1.51"/><path d="M783,123L759,200L860,221Z" fill="#95d3ba" stroke="#95d3ba" stroke-width="1.51"/><path d="M1105,184L998,127L1008,164Z" fill="#8cc9bc" stroke="#8cc9bc" stroke-width="1.51"/><path d="M657,332L661,515L762,338Z" fill="#77c9bd" stroke="#77c9bd" stroke-width="1.51"/><path d="M759,200L657,332L762,338Z" fill="#86cebb" stroke="#86cebb" stroke-width="1.51"/><path d="M843,624L979,735L1062,587Z" fill="#3aabc3" stroke="#3aabc3" stroke-width="1.51"/><path d="M849,768L979,735L843,624Z" fill="#40a8c2" stroke="#40a8c2" stroke-width="1.51"/><path d="M759,200L603,264L657,332Z" fill="#8fd2ba" stroke="#8fd2ba" stroke-width="1.51"/><path d="M938,129L783,123L860,221Z" fill="#96d3bb" stroke="#96d3bb" stroke-width="1.51"/><path d="M901,-74L783,123L938,129Z" fill="#a0d6bb" stroke="#a0d6bb" stroke-width="1.51"/><path d="M1105,184L1071,6L998,127Z" fill="#92cabc" stroke="#92cabc" stroke-width="1.51"/><path d="M1150,336L1240,221L1105,184Z" fill="#75bbbd" stroke="#75bbbd" stroke-width="1.51"/><path d="M1302,334L1150,336L1334,438Z" fill="#57acbe" stroke="#57acbe" stroke-width="1.51"/><path d="M771,755L849,768L843,624Z" fill="#4aabc0" stroke="#4aabc0" stroke-width="1.51"/><path d="M771,755L843,624L723,576Z" fill="#52b2c1" stroke="#52b2c1" stroke-width="1.51"/><path d="M1334,438L1150,336L1115,437Z" fill="#53afc0" stroke="#53afc0" stroke-width="1.51"/><path d="M661,515L639,608L723,576Z" fill="#63bec0" stroke="#63bec0" stroke-width="1.51"/><path d="M511,597L639,608L661,515Z" fill="#6dc1bf" stroke="#6dc1bf" stroke-width="1.51"/><path d="M979,735L1112,755L1101,651Z" fill="#2e9fc2" stroke="#2e9fc2" stroke-width="1.51"/><path d="M1101,651L1292,598L1062,587Z" fill="#32a3c2" stroke="#32a3c2" stroke-width="1.51"/><path d="M1053,880L1112,755L979,735Z" fill="#3097be" stroke="#3097be" stroke-width="1.51"/><path d="M674,758L771,755L723,576Z" fill="#56b0bf" stroke="#56b0bf" stroke-width="1.51"/><path d="M1112,755L1292,598L1101,651Z" fill="#2c9dc1" stroke="#2c9dc1" stroke-width="1.51"/><path d="M1292,598L1334,438L1115,437Z" fill="#3fa7c1" stroke="#3fa7c1" stroke-width="1.51"/><path d="M649,110L603,264L759,200Z" fill="#9dd8b9" stroke="#9dd8b9" stroke-width="1.51"/><path d="M657,332L511,377L661,515Z" fill="#7fcbbc" stroke="#7fcbbc" stroke-width="1.51"/><path d="M1240,221L1185,84L1105,184Z" fill="#86c0bc" stroke="#86c0bc" stroke-width="1.51"/><path d="M998,127L1071,6L938,129Z" fill="#95cfbc" stroke="#95cfbc" stroke-width="1.51"/><path d="M1265,111L1185,84L1240,221Z" fill="#88bebb" stroke="#88bebb" stroke-width="1.51"/><path d="M1292,598L1362,553L1334,438Z" fill="#379dbf" stroke="#379dbf" stroke-width="1.51"/><path d="M1416,710L1362,553L1292,598Z" fill="#2e93bd" stroke="#2e93bd" stroke-width="1.51"/><path d="M771,755L732,845L849,768Z" fill="#4da3bc" stroke="#4da3bc" stroke-width="1.51"/><path d="M639,608L674,758L723,576Z" fill="#5eb6bf" stroke="#5eb6bf" stroke-width="1.51"/><path d="M1185,84L1071,6L1105,184Z" fill="#91c7bc" stroke="#91c7bc" stroke-width="1.51"/><path d="M725,-47L649,110L783,123Z" fill="#abdcb8" stroke="#abdcb8" stroke-width="1.51"/><path d="M783,123L649,110L759,200Z" fill="#a1d8b9" stroke="#a1d8b9" stroke-width="1.51"/><path d="M1185,84L1140,-43L1071,6Z" fill="#9ac8bb" stroke="#9ac8bb" stroke-width="1.51"/><path d="M1434,226L1265,111L1240,221Z" fill="#7fb3b9" stroke="#7fb3b9" stroke-width="1.51"/><path d="M1434,226L1240,221L1302,334Z" fill="#6fadba" stroke="#6fadba" stroke-width="1.51"/><path d="M1398,321L1302,334L1334,438Z" fill="#58a5bb" stroke="#58a5bb" stroke-width="1.51"/><path d="M460,184L511,377L603,264Z" fill="#a0d9b9" stroke="#a0d9b9" stroke-width="1.51"/><path d="M603,264L511,377L657,332Z" fill="#8ed2ba" stroke="#8ed2ba" stroke-width="1.51"/><path d="M639,608L495,742L674,758Z" fill="#67b4be" stroke="#67b4be" stroke-width="1.51"/><path d="M1362,553L1406,453L1334,438Z" fill="#439cbc" stroke="#439cbc" stroke-width="1.51"/><path d="M1406,453L1398,321L1334,438Z" fill="#51a0bb" stroke="#51a0bb" stroke-width="1.51"/><path d="M1112,755L1315,784L1292,598Z" fill="#2294c1" stroke="#2294c1" stroke-width="1.51"/><path d="M920,901L1053,880L979,735Z" fill="#3494bc" stroke="#3494bc" stroke-width="1.51"/><path d="M920,901L979,735L849,768Z" fill="#3c9cbe" stroke="#3c9cbe" stroke-width="1.51"/><path d="M483,512L511,597L661,515Z" fill="#77c7be" stroke="#77c7be" stroke-width="1.51"/><path d="M674,758L732,845L771,755Z" fill="#54a5bc" stroke="#54a5bc" stroke-width="1.51"/><path d="M648,857L732,845L674,758Z" fill="#59a2ba" stroke="#59a2ba" stroke-width="1.51"/><path d="M732,845L920,901L849,768Z" fill="#489aba" stroke="#489aba" stroke-width="1.51"/><path d="M511,377L483,512L661,515Z" fill="#80cbbd" stroke="#80cbbd" stroke-width="1.51"/><path d="M1071,6L901,-74L938,129Z" fill="#9ed4bc" stroke="#9ed4bc" stroke-width="1.51"/><path d="M1071,6L1002,-194L901,-74Z" fill="#a6d5c0" stroke="#a6d5c0" stroke-width="1.51"/><path d="M1253,4L1140,-43L1185,84Z" fill="#98c5bb" stroke="#98c5bb" stroke-width="1.51"/><path d="M1053,880L1156,888L1112,755Z" fill="#2d8cbb" stroke="#2d8cbb" stroke-width="1.51"/><path d="M1072,984L1156,888L1053,880Z" fill="#2f83b6" stroke="#2f83b6" stroke-width="1.51"/><path d="M1285,835L1315,784L1112,755Z" fill="#218abd" stroke="#218abd" stroke-width="1.51"/><path d="M1362,553L1493,641L1406,453Z" fill="#3593bb" stroke="#3593bb" stroke-width="1.51"/><path d="M1265,111L1253,4L1185,84Z" fill="#91c0bb" stroke="#91c0bb" stroke-width="1.51"/><path d="M1417,42L1253,4L1265,111Z" fill="#91bab9" stroke="#91bab9" stroke-width="1.51"/><path d="M1398,321L1434,226L1302,334Z" fill="#68a6b8" stroke="#68a6b8" stroke-width="1.51"/><path d="M1491,302L1434,226L1398,321Z" fill="#6aa1b6" stroke="#6aa1b6" stroke-width="1.51"/><path d="M901,-74L725,-47L783,123Z" fill="#abdbb9" stroke="#abdbb9" stroke-width="1.51"/><path d="M335,342L416,458L511,377Z" fill="#9ad5b9" stroke="#9ad5b9" stroke-width="1.51"/><path d="M1156,888L1285,835L1112,755Z" fill="#2789bb" stroke="#2789bb" stroke-width="1.51"/><path d="M732,845L752,970L920,901Z" fill="#4d92b6" stroke="#4d92b6" stroke-width="1.51"/><path d="M532,833L648,857L674,758Z" fill="#63a6b9" stroke="#63a6b9" stroke-width="1.51"/><path d="M350,652L405,687L511,597Z" fill="#84c2bc" stroke="#84c2bc" stroke-width="1.51"/><path d="M511,597L495,742L639,608Z" fill="#72bcbe" stroke="#72bcbe" stroke-width="1.51"/><path d="M511,377L416,458L483,512Z" fill="#8dd0bb" stroke="#8dd0bb" stroke-width="1.51"/><path d="M460,184L603,264L649,110Z" fill="#aaddb7" stroke="#aaddb7" stroke-width="1.51"/><path d="M1460,856L1416,710L1315,784Z" fill="#227eb7" stroke="#227eb7" stroke-width="1.51"/><path d="M1315,784L1416,710L1292,598Z" fill="#258dbd" stroke="#258dbd" stroke-width="1.51"/><path d="M1406,453L1491,302L1398,321Z" fill="#589db7" stroke="#589db7" stroke-width="1.51"/><path d="M464,30L460,184L649,110Z" fill="#bae3b6" stroke="#bae3b6" stroke-width="1.51"/><path d="M1562,492L1491,302L1406,453Z" fill="#5095b6" stroke="#5095b6" stroke-width="1.51"/><path d="M405,687L495,742L511,597Z" fill="#7cbdbc" stroke="#7cbdbc" stroke-width="1.51"/><path d="M725,-47L657,-47L649,110Z" fill="#b3e0b7" stroke="#b3e0b7" stroke-width="1.51"/><path d="M681,-200L657,-47L725,-47Z" fill="#bae2bc" stroke="#bae2bc" stroke-width="1.51"/><path d="M1156,888L1276,987L1285,835Z" fill="#247cb6" stroke="#247cb6" stroke-width="1.51"/><path d="M920,901L1072,984L1053,880Z" fill="#3487b6" stroke="#3487b6" stroke-width="1.51"/><path d="M912,1078L1072,984L920,901Z" fill="#3a82b3" stroke="#3a82b3" stroke-width="1.51"/><path d="M648,857L752,970L732,845Z" fill="#5798b5" stroke="#5798b5" stroke-width="1.51"/><path d="M664,1048L752,970L648,857Z" fill="#5990b1" stroke="#5990b1" stroke-width="1.51"/><path d="M1416,710L1493,641L1362,553Z" fill="#2d8bba" stroke="#2d8bba" stroke-width="1.51"/><path d="M1498,819L1493,641L1416,710Z" fill="#247fb7" stroke="#247fb7" stroke-width="1.51"/><path d="M495,742L532,833L674,758Z" fill="#6badbb" stroke="#6badbb" stroke-width="1.51"/><path d="M1140,-43L1138,-134L1071,6Z" fill="#a1ccbc" stroke="#a1ccbc" stroke-width="1.51"/><path d="M901,-74L787,-220L725,-47Z" fill="#b3debf" stroke="#b3debf" stroke-width="1.51"/><path d="M1253,4L1138,-134L1140,-43Z" fill="#9fc8bc" stroke="#9fc8bc" stroke-width="1.51"/><path d="M1002,-194L913,-175L901,-74Z" fill="#abdac5" stroke="#abdac5" stroke-width="1.51"/><path d="M1253,4L1275,-192L1138,-134Z" fill="#a0c6c0" stroke="#a0c6c0" stroke-width="1.51"/><path d="M1434,226L1417,42L1265,111Z" fill="#88b1b7" stroke="#88b1b7" stroke-width="1.51"/><path d="M1520,3L1417,42L1597,131Z" fill="#8ea7b1" stroke="#8ea7b1" stroke-width="1.51"/><path d="M486,-165L549,-27L657,-47Z" fill="#c7e8b9" stroke="#c7e8b9" stroke-width="1.51"/><path d="M657,-47L549,-27L649,110Z" fill="#b9e3b6" stroke="#b9e3b6" stroke-width="1.51"/><path d="M495,742L420,905L532,833Z" fill="#77aab7" stroke="#77aab7" stroke-width="1.51"/><path d="M350,652L511,597L483,512Z" fill="#83c7bd" stroke="#83c7bd" stroke-width="1.51"/><path d="M1491,302L1535,252L1434,226Z" fill="#6e9eb4" stroke="#6e9eb4" stroke-width="1.51"/><path d="M1641,340L1535,252L1491,302Z" fill="#6696b1" stroke="#6696b1" stroke-width="1.51"/><path d="M1493,641L1562,492L1406,453Z" fill="#3a8fb9" stroke="#3a8fb9" stroke-width="1.51"/><path d="M1072,984L1155,1009L1156,888Z" fill="#2f7cb4" stroke="#2f7cb4" stroke-width="1.51"/><path d="M1285,835L1460,856L1315,784Z" fill="#237cb7" stroke="#237cb7" stroke-width="1.51"/><path d="M1151,1149L1155,1009L1072,984Z" fill="#3272af" stroke="#3272af" stroke-width="1.51"/><path d="M752,970L872,1039L920,901Z" fill="#4889b3" stroke="#4889b3" stroke-width="1.51"/><path d="M1138,-134L1002,-194L1071,6Z" fill="#a5d0c1" stroke="#a5d0c1" stroke-width="1.51"/><path d="M356,177L335,342L460,184Z" fill="#b8e2b6" stroke="#b8e2b6" stroke-width="1.51"/><path d="M460,184L335,342L511,377Z" fill="#a6dbb8" stroke="#a6dbb8" stroke-width="1.51"/><path d="M292,559L350,652L483,512Z" fill="#8eccbc" stroke="#8eccbc" stroke-width="1.51"/><path d="M549,-27L464,30L649,110Z" fill="#bee5b5" stroke="#bee5b5" stroke-width="1.51"/><path d="M405,687L420,905L495,742Z" fill="#7db3ba" stroke="#7db3ba" stroke-width="1.51"/><path d="M292,559L483,512L416,458Z" fill="#90d0bc" stroke="#90d0bc" stroke-width="1.51"/><path d="M390,39L356,177L460,184Z" fill="#c6e8b5" stroke="#c6e8b5" stroke-width="1.51"/><path d="M1155,1009L1276,987L1156,888Z" fill="#2a78b3" stroke="#2a78b3" stroke-width="1.51"/><path d="M872,1039L912,1078L920,901Z" fill="#4383b2" stroke="#4383b2" stroke-width="1.51"/><path d="M1155,1009L1302,1133L1276,987Z" fill="#2a6caf" stroke="#2a6caf" stroke-width="1.51"/><path d="M717,1122L912,1078L872,1039Z" fill="#4d7dad" stroke="#4d7dad" stroke-width="1.51"/><path d="M717,1122L872,1039L752,970Z" fill="#5183ae" stroke="#5183ae" stroke-width="1.51"/><path d="M913,-175L787,-220L901,-74Z" fill="#b0dcc4" stroke="#b0dcc4" stroke-width="1.51"/><path d="M379,-41L390,39L464,30Z" fill="#d1ecb4" stroke="#d1ecb4" stroke-width="1.51"/><path d="M1002,-194L787,-220L913,-175Z" fill="#b0dcc9" stroke="#b0dcc9" stroke-width="1.51"/><path d="M1276,987L1460,856L1285,835Z" fill="#2375b3" stroke="#2375b3" stroke-width="1.51"/><path d="M1493,641L1638,528L1562,492Z" fill="#3786b6" stroke="#3786b6" stroke-width="1.51"/><path d="M1460,856L1498,819L1416,710Z" fill="#2377b4" stroke="#2377b4" stroke-width="1.51"/><path d="M269,355L292,559L416,458Z" fill="#9cd5ba" stroke="#9cd5ba" stroke-width="1.51"/><path d="M269,355L416,458L335,342Z" fill="#a3d9b9" stroke="#a3d9b9" stroke-width="1.51"/><path d="M787,-220L681,-200L725,-47Z" fill="#bae2c2" stroke="#bae2c2" stroke-width="1.51"/><path d="M379,-41L464,30L549,-27Z" fill="#cdeab4" stroke="#cdeab4" stroke-width="1.51"/><path d="M464,30L390,39L460,184Z" fill="#c6e8b5" stroke="#c6e8b5" stroke-width="1.51"/><path d="M522,1000L664,1048L648,857Z" fill="#6492b0" stroke="#6492b0" stroke-width="1.51"/><path d="M522,1000L648,857L532,833Z" fill="#6a9cb4" stroke="#6a9cb4" stroke-width="1.51"/><path d="M200,212L335,342L356,177Z" fill="#bce4b6" stroke="#bce4b6" stroke-width="1.51"/><path d="M200,212L269,355L335,342Z" fill="#b4e0b7" stroke="#b4e0b7" stroke-width="1.51"/><path d="M1562,492L1641,340L1491,302Z" fill="#5690b3" stroke="#5690b3" stroke-width="1.51"/><path d="M1635,646L1638,528L1493,641Z" fill="#3380b4" stroke="#3380b4" stroke-width="1.51"/><path d="M1638,528L1641,340L1562,492Z" fill="#4a89b2" stroke="#4a89b2" stroke-width="1.51"/><path d="M1520,3L1425,-88L1417,42Z" fill="#97afb3" stroke="#97afb3" stroke-width="1.51"/><path d="M1425,-88L1275,-192L1253,4Z" fill="#9dbebc" stroke="#9dbebc" stroke-width="1.51"/><path d="M1138,-134L1275,-192L1002,-194Z" fill="#a5cdc8" stroke="#a5cdc8" stroke-width="1.51"/><path d="M1002,-194L1382,-207L787,-220Z" fill="#a9d3cb" stroke="#a9d3cb" stroke-width="1.51"/><path d="M1425,-88L1253,4L1417,42Z" fill="#98b7b7" stroke="#98b7b7" stroke-width="1.51"/><path d="M1417,42L1434,226L1597,131Z" fill="#86a7b2" stroke="#86a7b2" stroke-width="1.51"/><path d="M1498,819L1599,702L1493,641Z" fill="#257ab5" stroke="#257ab5" stroke-width="1.51"/><path d="M1597,131L1434,226L1535,252Z" fill="#7a9fb2" stroke="#7a9fb2" stroke-width="1.51"/><path d="M1646,163L1597,131L1535,252Z" fill="#7e9aaf" stroke="#7e9aaf" stroke-width="1.51"/><path d="M293,957L420,905L210,874Z" fill="#89a4b1" stroke="#89a4b1" stroke-width="1.51"/><path d="M210,874L405,687L350,652Z" fill="#8bbdbb" stroke="#8bbdbb" stroke-width="1.51"/><path d="M1599,702L1635,646L1493,641Z" fill="#2d7cb4" stroke="#2d7cb4" stroke-width="1.51"/><path d="M420,905L522,1000L532,833Z" fill="#759eb2" stroke="#759eb2" stroke-width="1.51"/><path d="M912,1078L1012,1144L1072,984Z" fill="#3b78af" stroke="#3b78af" stroke-width="1.51"/><path d="M1038,1212L1012,1144L921,1295Z" fill="#356b9e" stroke="#356b9e" stroke-width="1.51"/><path d="M664,1048L717,1122L752,970Z" fill="#5885ad" stroke="#5885ad" stroke-width="1.51"/><path d="M669,1146L717,1122L664,1048Z" fill="#5c80aa" stroke="#5c80aa" stroke-width="1.51"/><path d="M390,39L285,49L356,177Z" fill="#cfecb4" stroke="#cfecb4" stroke-width="1.51"/><path d="M486,-165L379,-41L549,-27Z" fill="#d1edb7" stroke="#d1edb7" stroke-width="1.51"/><path d="M1597,131L1626,1L1520,3Z" fill="#8fa1af" stroke="#8fa1af" stroke-width="1.51"/><path d="M1641,340L1646,163L1535,252Z" fill="#7095b0" stroke="#7095b0" stroke-width="1.51"/><path d="M1692,89L1646,163L1817,251Z" fill="#8092ab" stroke="#8092ab" stroke-width="1.51"/><path d="M292,559L190,696L350,652Z" fill="#93c8bc" stroke="#93c8bc" stroke-width="1.51"/><path d="M269,355L210,521L292,559Z" fill="#9fd6bb" stroke="#9fd6bb" stroke-width="1.51"/><path d="M98,438L210,521L269,355Z" fill="#a9dab9" stroke="#a9dab9" stroke-width="1.51"/><path d="M1012,1144L1151,1149L1072,984Z" fill="#3771ad" stroke="#3771ad" stroke-width="1.51"/><path d="M1276,987L1405,1047L1460,856Z" fill="#2569ae" stroke="#2569ae" stroke-width="1.51"/><path d="M681,-200L486,-165L657,-47Z" fill="#c5e7bf" stroke="#c5e7bf" stroke-width="1.51"/><path d="M344,-154L486,-165L267,-186Z" fill="#e0f3bf" stroke="#e0f3bf" stroke-width="1.51"/><path d="M1492,-199L1382,-207L1425,-88Z" fill="#9eb3bf" stroke="#9eb3bf" stroke-width="1.51"/><path d="M1425,-88L1382,-207L1275,-192Z" fill="#9fbac2" stroke="#9fbac2" stroke-width="1.51"/><path d="M1275,-192L1382,-207L1002,-194Z" fill="#a3c8ca" stroke="#a3c8ca" stroke-width="1.51"/><path d="M1492,-199L1425,-88L1520,3Z" fill="#9baeb7" stroke="#9baeb7" stroke-width="1.51"/><path d="M379,-41L285,49L390,39Z" fill="#d6eeb3" stroke="#d6eeb3" stroke-width="1.51"/><path d="M276,-42L285,49L379,-41Z" fill="#dbf1b3" stroke="#dbf1b3" stroke-width="1.51"/><path d="M1677,916L1721,736L1599,702Z" fill="#2768ad" stroke="#2768ad" stroke-width="1.51"/><path d="M1599,702L1721,736L1635,646Z" fill="#2c73b1" stroke="#2c73b1" stroke-width="1.51"/><path d="M1460,856L1565,989L1498,819Z" fill="#2367ac" stroke="#2367ac" stroke-width="1.51"/><path d="M1302,1133L1405,1047L1276,987Z" fill="#2963ab" stroke="#2963ab" stroke-width="1.51"/><path d="M488,1171L669,1146L664,1048Z" fill="#6681a9" stroke="#6681a9" stroke-width="1.51"/><path d="M921,1295L1012,1144L912,1078Z" fill="#3c70a5" stroke="#3c70a5" stroke-width="1.51"/><path d="M1012,1144L1116,1216L1151,1149Z" fill="#3369a4" stroke="#3369a4" stroke-width="1.51"/><path d="M488,1171L664,1048L522,1000Z" fill="#6c88ab" stroke="#6c88ab" stroke-width="1.51"/><path d="M285,49L200,212L356,177Z" fill="#ceebb4" stroke="#ceebb4" stroke-width="1.51"/><path d="M1151,1149L1302,1133L1155,1009Z" fill="#2f68ac" stroke="#2f68ac" stroke-width="1.51"/><path d="M1151,1149L1278,1217L1302,1133Z" fill="#2960a3" stroke="#2960a3" stroke-width="1.51"/><path d="M732,1245L912,1078L717,1122Z" fill="#5078a7" stroke="#5078a7" stroke-width="1.51"/><path d="M1692,89L1626,1L1597,131Z" fill="#8c9cad" stroke="#8c9cad" stroke-width="1.51"/><path d="M1038,1212L1116,1216L1012,1144Z" fill="#3469a1" stroke="#3469a1" stroke-width="1.51"/><path d="M210,521L190,696L292,559Z" fill="#98cdbc" stroke="#98cdbc" stroke-width="1.51"/><path d="M420,905L400,1030L522,1000Z" fill="#7a98ae" stroke="#7a98ae" stroke-width="1.51"/><path d="M101,718L190,696L67,614Z" fill="#9dc8bb" stroke="#9dc8bb" stroke-width="1.51"/><path d="M1646,163L1692,89L1597,131Z" fill="#8699ad" stroke="#8699ad" stroke-width="1.51"/><path d="M1817,251L1646,163L1641,340Z" fill="#708eac" stroke="#708eac" stroke-width="1.51"/><path d="M1787,485L1641,340L1638,528Z" fill="#4c83b0" stroke="#4c83b0" stroke-width="1.51"/><path d="M293,957L400,1030L420,905Z" fill="#849caf" stroke="#849caf" stroke-width="1.51"/><path d="M118,137L117,166L200,212Z" fill="#d2edb4" stroke="#d2edb4" stroke-width="1.51"/><path d="M344,-154L276,-42L379,-41Z" fill="#def2b6" stroke="#def2b6" stroke-width="1.51"/><path d="M1725,-159L1492,-199L1626,1Z" fill="#9aa3b4" stroke="#9aa3b4" stroke-width="1.51"/><path d="M1626,1L1492,-199L1520,3Z" fill="#99a7b1" stroke="#99a7b1" stroke-width="1.51"/><path d="M1797,584L1787,485L1638,528Z" fill="#3e7bb0" stroke="#3e7bb0" stroke-width="1.51"/><path d="M1677,916L1599,702L1498,819Z" fill="#256aae" stroke="#256aae" stroke-width="1.51"/><path d="M1405,1047L1565,989L1460,856Z" fill="#2460aa" stroke="#2460aa" stroke-width="1.51"/><path d="M1517,1100L1565,989L1405,1047Z" fill="#2656a4" stroke="#2656a4" stroke-width="1.51"/><path d="M1797,584L1638,528L1635,646Z" fill="#387ab1" stroke="#387ab1" stroke-width="1.51"/><path d="M267,-186L486,-165L681,-200Z" fill="#d5eec2" stroke="#d5eec2" stroke-width="1.51"/><path d="M486,-165L344,-154L379,-41Z" fill="#daf1ba" stroke="#daf1ba" stroke-width="1.51"/><path d="M210,874L420,905L405,687Z" fill="#88b0b6" stroke="#88b0b6" stroke-width="1.51"/><path d="M669,1146L732,1245L717,1122Z" fill="#5679a2" stroke="#5679a2" stroke-width="1.51"/><path d="M1038,1212L921,1295L1116,1216Z" fill="#316799" stroke="#316799" stroke-width="1.51"/><path d="M670,1276L732,1245L669,1146Z" fill="#53769a" stroke="#53769a" stroke-width="1.51"/><path d="M90,324L269,355L200,212Z" fill="#bae3b6" stroke="#bae3b6" stroke-width="1.51"/><path d="M90,324L98,438L269,355Z" fill="#b2dfb7" stroke="#b2dfb7" stroke-width="1.51"/><path d="M1457,1165L1517,1100L1405,1047Z" fill="#2853a3" stroke="#2853a3" stroke-width="1.51"/><path d="M1116,1216L1278,1217L1151,1149Z" fill="#2b62a0" stroke="#2b62a0" stroke-width="1.51"/><path d="M921,1295L1278,1217L1116,1216Z" fill="#2c6398" stroke="#2c6398" stroke-width="1.51"/><path d="M1721,736L1797,584L1635,646Z" fill="#3272af" stroke="#3272af" stroke-width="1.51"/><path d="M101,718L210,874L190,696Z" fill="#96bdb9" stroke="#96bdb9" stroke-width="1.51"/><path d="M190,696L210,874L350,652Z" fill="#90bebb" stroke="#90bebb" stroke-width="1.51"/><path d="M117,166L90,324L200,212Z" fill="#c9e9b5" stroke="#c9e9b5" stroke-width="1.51"/><path d="M732,1245L921,1295L912,1078Z" fill="#44719e" stroke="#44719e" stroke-width="1.51"/><path d="M118,137L285,49L131,-74Z" fill="#dff3b2" stroke="#dff3b2" stroke-width="1.51"/><path d="M118,137L200,212L285,49Z" fill="#d4eeb3" stroke="#d4eeb3" stroke-width="1.51"/><path d="M1565,989L1677,916L1498,819Z" fill="#235ea9" stroke="#235ea9" stroke-width="1.51"/><path d="M1721,736L1813,750L1797,584Z" fill="#306aad" stroke="#306aad" stroke-width="1.51"/><path d="M1669,1035L1677,916L1565,989Z" fill="#2553a3" stroke="#2553a3" stroke-width="1.51"/><path d="M325,1123L400,1030L263,1086Z" fill="#8790a9" stroke="#8790a9" stroke-width="1.51"/><path d="M325,1123L488,1171L400,1030Z" fill="#808aa8" stroke="#808aa8" stroke-width="1.51"/><path d="M400,1030L488,1171L522,1000Z" fill="#788daa" stroke="#788daa" stroke-width="1.51"/><path d="M1457,1165L1405,1047L1302,1133Z" fill="#2958a5" stroke="#2958a5" stroke-width="1.51"/><path d="M1808,-62L1725,-159L1626,1Z" fill="#999aac" stroke="#999aac" stroke-width="1.51"/><path d="M1850,311L1817,251L1641,340Z" fill="#6785ab" stroke="#6785ab" stroke-width="1.51"/><path d="M1850,311L1641,340L1787,485Z" fill="#5882ad" stroke="#5882ad" stroke-width="1.51"/><path d="M-7,266L-6,334L90,324Z" fill="#c1e5b9" stroke="#c1e5b9" stroke-width="1.51"/><path d="M131,-74L285,49L276,-42Z" fill="#e1f3b2" stroke="#e1f3b2" stroke-width="1.51"/><path d="M1425,1205L1457,1165L1302,1133Z" fill="#26539d" stroke="#26539d" stroke-width="1.51"/><path d="M533,1268L670,1276L669,1146Z" fill="#5a7898" stroke="#5a7898" stroke-width="1.51"/><path d="M732,1245L670,1276L921,1295Z" fill="#476f92" stroke="#476f92" stroke-width="1.51"/><path d="M67,614L190,696L210,521Z" fill="#9dcebc" stroke="#9dcebc" stroke-width="1.51"/><path d="M67,614L210,521L98,438Z" fill="#a4d7bb" stroke="#a4d7bb" stroke-width="1.51"/><path d="M1885,438L1850,311L1787,485Z" fill="#547aaa" stroke="#547aaa" stroke-width="1.51"/><path d="M29,629L67,614L-71,481Z" fill="#a6d4c0" stroke="#a6d4c0" stroke-width="1.51"/><path d="M1716,1142L1669,1035L1517,1100Z" fill="#26479d" stroke="#26479d" stroke-width="1.51"/><path d="M1278,1217L1425,1205L1302,1133Z" fill="#26579d" stroke="#26579d" stroke-width="1.51"/><path d="M1560,1306L1425,1205L1278,1217Z" fill="#204c90" stroke="#204c90" stroke-width="1.51"/><path d="M344,-154L267,-186L276,-42Z" fill="#e3f4ba" stroke="#e3f4ba" stroke-width="1.51"/><path d="M787,-220L267,-186L681,-200Z" fill="#caeac5" stroke="#caeac5" stroke-width="1.51"/><path d="M1797,584L1885,438L1787,485Z" fill="#4576ac" stroke="#4576ac" stroke-width="1.51"/><path d="M1836,848L1813,750L1721,736Z" fill="#2a60a9" stroke="#2a60a9" stroke-width="1.51"/><path d="M1964,576L1885,438L1797,584Z" fill="#3d72a8" stroke="#3d72a8" stroke-width="1.51"/><path d="M263,1086L400,1030L293,957Z" fill="#8797ab" stroke="#8797ab" stroke-width="1.51"/><path d="M488,1171L533,1268L669,1146Z" fill="#657d9d" stroke="#657d9d" stroke-width="1.51"/><path d="M263,1086L293,957L90,1002Z" fill="#8f9aab" stroke="#8f9aab" stroke-width="1.51"/><path d="M1677,916L1836,848L1721,736Z" fill="#285ca8" stroke="#285ca8" stroke-width="1.51"/><path d="M1517,1100L1669,1035L1565,989Z" fill="#2550a1" stroke="#2550a1" stroke-width="1.51"/><path d="M1771,1021L1669,1035L1716,1142Z" fill="#26449b" stroke="#26449b" stroke-width="1.51"/><path d="M391,1244L533,1268L488,1171Z" fill="#6e7e96" stroke="#6e7e96" stroke-width="1.51"/><path d="M670,1276L62,1290L921,1295Z" fill="#5f768d" stroke="#5f768d" stroke-width="1.51"/><path d="M126,919L293,957L210,874Z" fill="#90a6b0" stroke="#90a6b0" stroke-width="1.51"/><path d="M67,614L29,629L101,718Z" fill="#a1cbbc" stroke="#a1cbbc" stroke-width="1.51"/><path d="M-71,481L67,614L98,438Z" fill="#aad9be" stroke="#aad9be" stroke-width="1.51"/><path d="M-6,334L98,438L90,324Z" fill="#b8e1b8" stroke="#b8e1b8" stroke-width="1.51"/><path d="M1885,438L1902,343L1850,311Z" fill="#597ba5" stroke="#597ba5" stroke-width="1.51"/><path d="M1850,311L1986,179L1817,251Z" fill="#6f81a3" stroke="#6f81a3" stroke-width="1.51"/><path d="M1808,-62L1626,1L1692,89Z" fill="#9298ab" stroke="#9298ab" stroke-width="1.51"/><path d="M325,1123L391,1244L488,1171Z" fill="#7b859e" stroke="#7b859e" stroke-width="1.51"/><path d="M126,919L210,874L101,718Z" fill="#96b3b5" stroke="#96b3b5" stroke-width="1.51"/><path d="M138,-125L131,-74L276,-42Z" fill="#e8f6b5" stroke="#e8f6b5" stroke-width="1.51"/><path d="M-7,266L90,324L117,166Z" fill="#cae9b6" stroke="#cae9b6" stroke-width="1.51"/><path d="M-7,266L117,166L118,137Z" fill="#d4edb4" stroke="#d4edb4" stroke-width="1.51"/><path d="M11,766L126,919L101,718Z" fill="#9bbab7" stroke="#9bbab7" stroke-width="1.51"/><path d="M1853,55L1692,89L1817,251Z" fill="#858ea9" stroke="#858ea9" stroke-width="1.51"/><path d="M-53,37L-7,266L118,137Z" fill="#dcf1b7" stroke="#dcf1b7" stroke-width="1.51"/><path d="M1986,179L1853,55L1817,251Z" fill="#7e86a2" stroke="#7e86a2" stroke-width="1.51"/><path d="M1813,750L1921,743L1797,584Z" fill="#3066aa" stroke="#3066aa" stroke-width="1.51"/><path d="M1885,438L2087,368L1902,343Z" fill="#51769d" stroke="#51769d" stroke-width="1.51"/><path d="M1771,1021L1836,848L1677,916Z" fill="#264fa1" stroke="#264fa1" stroke-width="1.51"/><path d="M131,-74L-16,-26L118,137Z" fill="#e8f5b2" stroke="#e8f5b2" stroke-width="1.51"/><path d="M267,-186L138,-125L276,-42Z" fill="#e7f6b9" stroke="#e7f6b9" stroke-width="1.51"/><path d="M1853,55L1808,-62L1692,89Z" fill="#9092a8" stroke="#9092a8" stroke-width="1.51"/><path d="M219,1252L325,1123L263,1086Z" fill="#888aa2" stroke="#888aa2" stroke-width="1.51"/><path d="M219,1252L391,1244L325,1123Z" fill="#808599" stroke="#808599" stroke-width="1.51"/><path d="M29,629L11,766L101,718Z" fill="#9fc7bd" stroke="#9fc7bd" stroke-width="1.51"/><path d="M-174,682L11,766L29,629Z" fill="#a2c9c3" stroke="#a2c9c3" stroke-width="1.51"/><path d="M1669,1035L1771,1021L1677,916Z" fill="#264ca0" stroke="#264ca0" stroke-width="1.51"/><path d="M1716,1142L1517,1100L1724,1209Z" fill="#244096" stroke="#244096" stroke-width="1.51"/><path d="M1836,848L1883,835L1813,750Z" fill="#2a58a5" stroke="#2a58a5" stroke-width="1.51"/><path d="M1943,1013L1883,835L1836,848Z" fill="#244b9b" stroke="#244b9b" stroke-width="1.51"/><path d="M1883,835L1921,743L1813,750Z" fill="#295ba4" stroke="#295ba4" stroke-width="1.51"/><path d="M1965,30L1885,-5L1853,55Z" fill="#8c8a9f" stroke="#8c8a9f" stroke-width="1.51"/><path d="M1921,743L1964,576L1797,584Z" fill="#3369a6" stroke="#3369a6" stroke-width="1.51"/><path d="M-95,441L-71,481L-6,334Z" fill="#b6dfc2" stroke="#b6dfc2" stroke-width="1.51"/><path d="M-6,334L-71,481L98,438Z" fill="#b5dfbd" stroke="#b5dfbd" stroke-width="1.51"/><path d="M1853,55L1885,-5L1808,-62Z" fill="#928ea5" stroke="#928ea5" stroke-width="1.51"/><path d="M1808,-62L1829,-218L1725,-159Z" fill="#9a96b1" stroke="#9a96b1" stroke-width="1.51"/><path d="M1986,179L1850,311L1902,343Z" fill="#677ea0" stroke="#677ea0" stroke-width="1.51"/><path d="M126,919L90,1002L293,957Z" fill="#92a1ae" stroke="#92a1ae" stroke-width="1.51"/><path d="M28,980L90,1002L126,919Z" fill="#98a2ad" stroke="#98a2ad" stroke-width="1.51"/><path d="M-189,295L-6,334L-7,266Z" fill="#c6e8bf" stroke="#c6e8bf" stroke-width="1.51"/><path d="M-189,295L-95,441L-6,334Z" fill="#bde4c3" stroke="#bde4c3" stroke-width="1.51"/><path d="M-147,832L-6,854L11,766Z" fill="#9eb8be" stroke="#9eb8be" stroke-width="1.51"/><path d="M1771,1021L1943,1013L1836,848Z" fill="#26469b" stroke="#26469b" stroke-width="1.51"/><path d="M1560,1306L1517,1100L1457,1165Z" fill="#224895" stroke="#224895" stroke-width="1.51"/><path d="M-178,570L29,629L-71,481Z" fill="#a9d7c6" stroke="#a9d7c6" stroke-width="1.51"/><path d="M11,766L-6,854L126,919Z" fill="#9bb4b6" stroke="#9bb4b6" stroke-width="1.51"/><path d="M2067,205L1986,179L1902,343Z" fill="#6a7d98" stroke="#6a7d98" stroke-width="1.51"/><path d="M138,-125L-16,-26L131,-74Z" fill="#eef9b4" stroke="#eef9b4" stroke-width="1.51"/><path d="M1425,1205L1560,1306L1457,1165Z" fill="#204891" stroke="#204891" stroke-width="1.51"/><path d="M921,1295L1560,1306L1278,1217Z" fill="#1f5893" stroke="#1f5893" stroke-width="1.51"/><path d="M1964,576L2021,523L1885,438Z" fill="#3d6f9f" stroke="#3d6f9f" stroke-width="1.51"/><path d="M2100,618L2021,523L1964,576Z" fill="#316898" stroke="#316898" stroke-width="1.51"/><path d="M2046,694L1964,576L1921,743Z" fill="#2b619c" stroke="#2b619c" stroke-width="1.51"/><path d="M-16,-26L-53,37L118,137Z" fill="#e6f6b6" stroke="#e6f6b6" stroke-width="1.51"/><path d="M-6,854L28,980L126,919Z" fill="#99a9b2" stroke="#99a9b2" stroke-width="1.51"/><path d="M70,1094L219,1252L263,1086Z" fill="#8e8da3" stroke="#8e8da3" stroke-width="1.51"/><path d="M1986,179L1965,30L1853,55Z" fill="#83879c" stroke="#83879c" stroke-width="1.51"/><path d="M1926,-148L1829,-218L1808,-62Z" fill="#9991ae" stroke="#9991ae" stroke-width="1.51"/><path d="M1725,-159L1829,-218L1492,-199Z" fill="#9d9fb9" stroke="#9d9fb9" stroke-width="1.51"/><path d="M1492,-199L1829,-218L1382,-207Z" fill="#9ea8be" stroke="#9ea8be" stroke-width="1.51"/><path d="M1382,-207L1829,-218L787,-220Z" fill="#a2bec8" stroke="#a2bec8" stroke-width="1.51"/><path d="M1926,-148L1808,-62L1885,-5Z" fill="#958fa5" stroke="#958fa5" stroke-width="1.51"/><path d="M1560,1306L1724,1209L1517,1100Z" fill="#20408f" stroke="#20408f" stroke-width="1.51"/><path d="M1716,1142L1852,1071L1771,1021Z" fill="#263e98" stroke="#263e98" stroke-width="1.51"/><path d="M2013,900L2046,694L1921,743Z" fill="#225597" stroke="#225597" stroke-width="1.51"/><path d="M70,1094L263,1086L90,1002Z" fill="#9396aa" stroke="#9396aa" stroke-width="1.51"/><path d="M391,1244L219,1252L533,1268Z" fill="#768092" stroke="#768092" stroke-width="1.51"/><path d="M533,1268L62,1290L670,1276Z" fill="#6f7c8e" stroke="#6f7c8e" stroke-width="1.51"/><path d="M28,980L70,1094L90,1002Z" fill="#989cac" stroke="#989cac" stroke-width="1.51"/><path d="M1802,1239L1852,1071L1716,1142Z" fill="#243691" stroke="#243691" stroke-width="1.51"/><path d="M-167,84L-146,176L-53,37Z" fill="#e6f5c0" stroke="#e6f5c0" stroke-width="1.51"/><path d="M-53,37L-146,176L-7,266Z" fill="#ddf2bc" stroke="#ddf2bc" stroke-width="1.51"/><path d="M2013,900L1921,743L1883,835Z" fill="#24529a" stroke="#24529a" stroke-width="1.51"/><path d="M2021,523L2087,368L1885,438Z" fill="#46709a" stroke="#46709a" stroke-width="1.51"/><path d="M1965,30L1926,-148L1885,-5Z" fill="#918c9d" stroke="#918c9d" stroke-width="1.51"/><path d="M2100,618L2087,368L2021,523Z" fill="#386a93" stroke="#386a93" stroke-width="1.51"/><path d="M1986,179L2090,83L1965,30Z" fill="#7d8394" stroke="#7d8394" stroke-width="1.51"/><path d="M1965,30L2097,-52L1926,-148Z" fill="#8c8896" stroke="#8c8896" stroke-width="1.51"/><path d="M2087,368L2067,205L1902,343Z" fill="#5b7895" stroke="#5b7895" stroke-width="1.51"/><path d="M-95,441L-178,570L-71,481Z" fill="#afdcc7" stroke="#afdcc7" stroke-width="1.51"/><path d="M-6,854L-202,995L28,980Z" fill="#9ca7b8" stroke="#9ca7b8" stroke-width="1.51"/><path d="M-57,1120L36,1222L70,1094Z" fill="#9690a7" stroke="#9690a7" stroke-width="1.51"/><path d="M-189,295L-178,570L-95,441Z" fill="#b6e0c8" stroke="#b6e0c8" stroke-width="1.51"/><path d="M-146,176L-189,295L-7,266Z" fill="#d0ecc1" stroke="#d0ecc1" stroke-width="1.51"/><path d="M1901,1128L1943,1013L1852,1071Z" fill="#233791" stroke="#233791" stroke-width="1.51"/><path d="M1852,1071L1943,1013L1771,1021Z" fill="#253e97" stroke="#253e97" stroke-width="1.51"/><path d="M-16,-26L-127,-1L-53,37Z" fill="#edf8bb" stroke="#edf8bb" stroke-width="1.51"/><path d="M-146,176L-167,84L-189,295Z" fill="#dcf1c4" stroke="#dcf1c4" stroke-width="1.51"/><path d="M138,-125L-7,-218L-16,-26Z" fill="#f2fabc" stroke="#f2fabc" stroke-width="1.51"/><path d="M267,-186L-7,-218L138,-125Z" fill="#f0f9bf" stroke="#f0f9bf" stroke-width="1.51"/><path d="M787,-220L-7,-218L267,-186Z" fill="#e3f4c3" stroke="#e3f4c3" stroke-width="1.51"/><path d="M-178,570L-174,682L29,629Z" fill="#a6d0c7" stroke="#a6d0c7" stroke-width="1.51"/><path d="M-202,995L-174,682L-178,570Z" fill="#a2c4cb" stroke="#a2c4cb" stroke-width="1.51"/><path d="M-179,-165L-127,-1L-16,-26Z" fill="#f4fbc0" stroke="#f4fbc0" stroke-width="1.51"/><path d="M1943,1013L2013,900L1883,835Z" fill="#214694" stroke="#214694" stroke-width="1.51"/><path d="M2066,955L2100,618L2046,694Z" fill="#1e5590" stroke="#1e5590" stroke-width="1.51"/><path d="M2046,694L2100,618L1964,576Z" fill="#2c6296" stroke="#2c6296" stroke-width="1.51"/><path d="M-127,-1L-167,84L-53,37Z" fill="#ebf7bf" stroke="#ebf7bf" stroke-width="1.51"/><path d="M-174,682L-147,832L11,766Z" fill="#a0c1c5" stroke="#a0c1c5" stroke-width="1.51"/><path d="M1724,1209L1802,1239L1716,1142Z" fill="#21368c" stroke="#21368c" stroke-width="1.51"/><path d="M1560,1306L1802,1239L1724,1209Z" fill="#1d3785" stroke="#1d3785" stroke-width="1.51"/><path d="M1802,1239L1901,1128L1852,1071Z" fill="#233390" stroke="#233390" stroke-width="1.51"/><path d="M1943,1013L2066,955L2013,900Z" fill="#1e408b" stroke="#1e408b" stroke-width="1.51"/><path d="M2067,205L2090,83L1986,179Z" fill="#757f90" stroke="#757f90" stroke-width="1.51"/><path d="M2087,368L2090,83L2067,205Z" fill="#67798d" stroke="#67798d" stroke-width="1.51"/><path d="M2100,618L2090,83L2087,368Z" fill="#4d718e" stroke="#4d718e" stroke-width="1.51"/><path d="M-57,1120L70,1094L28,980Z" fill="#9998ad" stroke="#9998ad" stroke-width="1.51"/><path d="M70,1094L36,1222L219,1252Z" fill="#8f8b9c" stroke="#8f8b9c" stroke-width="1.51"/><path d="M-140,1102L-57,1120L28,980Z" fill="#9b98b2" stroke="#9b98b2" stroke-width="1.51"/><path d="M2078,1121L1943,1013L1901,1128Z" fill="#1f3388" stroke="#1f3388" stroke-width="1.51"/><path d="M2078,1121L2066,955L1943,1013Z" fill="#1d3785" stroke="#1d3785" stroke-width="1.51"/><path d="M2013,900L2066,955L2046,694Z" fill="#1e4a8d" stroke="#1e4a8d" stroke-width="1.51"/><path d="M2090,83L2097,-52L1965,30Z" fill="#82838f" stroke="#82838f" stroke-width="1.51"/><path d="M1926,-148L2088,-229L1829,-218Z" fill="#948ca8" stroke="#948ca8" stroke-width="1.51"/><path d="M2100,618L2097,-52L2090,83Z" fill="#67798c" stroke="#67798c" stroke-width="1.51"/><path d="M-176,1302L62,1290L36,1222Z" fill="#8b8795" stroke="#8b8795" stroke-width="1.51"/><path d="M36,1222L62,1290L219,1252Z" fill="#888691" stroke="#888691" stroke-width="1.51"/><path d="M219,1252L62,1290L533,1268Z" fill="#7c818f" stroke="#7c818f" stroke-width="1.51"/><path d="M921,1295L-176,1302L1560,1306Z" fill="#456d8e" stroke="#456d8e" stroke-width="1.51"/><path d="M-127,-1L-179,-165L-167,84Z" fill="#f3fbc1" stroke="#f3fbc1" stroke-width="1.51"/><path d="M-167,84L-179,-165L-189,295Z" fill="#eaf7c3" stroke="#eaf7c3" stroke-width="1.51"/><path d="M-7,-218L-179,-165L-16,-26Z" fill="#f6fbc4" stroke="#f6fbc4" stroke-width="1.51"/><path d="M-57,1120L-176,1302L36,1222Z" fill="#918aa0" stroke="#918aa0" stroke-width="1.51"/><path d="M-202,995L-140,1102L28,980Z" fill="#9b9eb6" stroke="#9b9eb6" stroke-width="1.51"/><path d="M-202,995L-6,854L-147,832Z" fill="#9eafbe" stroke="#9eafbe" stroke-width="1.51"/><path d="M-189,295L-202,995L-178,570Z" fill="#a9d2cd" stroke="#a9d2cd" stroke-width="1.51"/><path d="M-174,682L-202,995L-147,832Z" fill="#a1b7c5" stroke="#a1b7c5" stroke-width="1.51"/><path d="M1802,1239L1940,1281L1901,1128Z" fill="#1d2d81" stroke="#1d2d81" stroke-width="1.51"/><path d="M1560,1306L1940,1281L1802,1239Z" fill="#1b307f" stroke="#1b307f" stroke-width="1.51"/><path d="M2097,-52L2088,-229L1926,-148Z" fill="#8d8799" stroke="#8d8799" stroke-width="1.51"/><path d="M1829,-218L2088,-229L787,-220Z" fill="#9ea8c0" stroke="#9ea8c0" stroke-width="1.51"/><path d="M787,-220L2088,-229L-7,-218Z" fill="#acdacd" stroke="#acdacd" stroke-width="1.51"/><path d="M1940,1281L2078,1121L1901,1128Z" fill="#1b2b7e" stroke="#1b2b7e" stroke-width="1.51"/><path d="M2066,955L2078,1121L2100,618Z" fill="#1a4286" stroke="#1a4286" stroke-width="1.51"/><path d="M1940,1281L2077,1265L2078,1121Z" fill="#152771" stroke="#152771" stroke-width="1.51"/><path d="M2078,1121L2077,1265L2100,618Z" fill="#193780" stroke="#193780" stroke-width="1.51"/><path d="M-202,995L-176,1302L-140,1102Z" fill="#9c92b5" stroke="#9c92b5" stroke-width="1.51"/><path d="M-140,1102L-176,1302L-57,1120Z" fill="#978eab" stroke="#978eab" stroke-width="1.51"/><path d="M62,1290L-176,1302L921,1295Z" fill="#7a7f8b" stroke="#7a7f8b" stroke-width="1.51"/></svg>